<svg xmlns="http://www.w3.org/2000/svg" version="1.1" xmlns:xlink="http://www.w3.org/1999/xlink" xmlns:svgjs="http://svgjs.dev/svgjs" width="1000" height="969" viewBox="0 0 1000 969"><g transform="matrix(1,0,0,1,-0.025508251936059878,0.3484848484848726)"><svg viewBox="0 0 330 320" data-background-color="#ffffff" preserveAspectRatio="xMidYMid meet" height="969" width="1000" xmlns="http://www.w3.org/2000/svg" xmlns:xlink="http://www.w3.org/1999/xlink"><g id="tight-bounds" transform="matrix(1,0,0,1,0.008417723138904876,20)"><svg viewBox="0 0 329.9831645537222 280" height="280" width="329.9831645537222"><g><svg viewBox="0 0 329.9831645537222 280" height="280" width="329.9831645537222"><g><svg viewBox="0 0 329.9831645537222 280" height="280" width="329.9831645537222"><g id="textblocktransform"><svg viewBox="0 0 329.9831645537222 280" height="280" width="329.9831645537222" id="textblock"><g><svg viewBox="0 0 329.9831645537222 280" height="280" width="329.9831645537222"><g transform="matrix(1,0,0,1,0,-24.991582276861095)"><svg viewBox="0 0 329.9831645537222 329.9831645537222" height="329.9831645537222" width="329.9831645537222"><g><circle r="1.6e+2" cx="164.9915822768611" cy="164.9915822768611" fill="#000000" data-fill-palette-color="accent"></circle><svg xmlns="http://www.w3.org/2000/svg" xmlns:xlink="http://www.w3.org/1999/xlink" version="1.1" x="49.49747468305833" y="49.49747468305834" viewBox="10 5.460374964149143 80 89.09862503585086" enable-background="new 0 0 100 100" xml:space="preserve" height="230.9882151876055" width="230.9882151876055" class="icon-kg-0" data-fill-palette-color="quaternary" id="kg-0"><g fill="#ffffff" data-fill-palette-color="quaternary"><path d="M86.062 24.99L53.832 6.441c-2.264-1.308-5.247-1.307-7.511 0L13.963 24.99C11.662 26.318 10 28.793 10 31.451v37.097c0 2.658 1.636 5.136 3.937 6.462l32.23 18.549c1.133 0.653 2.474 1 3.782 1 1.309 0 2.624-0.347 3.756-1L86.051 75.01C88.352 73.682 90 71.205 90 68.548V31.451C90 28.794 88.363 26.318 86.062 24.99zM25.879 78.118C25.959 73.741 29.458 70 33.756 70H48v21.158c0-0.061-0.188-0.225-0.318-0.301L25.879 78.118zM36 50.412C37 46.387 41.16 43 45.637 43h8.581c5.269 0 9.612 4.261 10.125 9.396-0.393 7.527-6.624 13.656-14.248 13.656C42.977 66.053 37 60.934 36 54.113V50.412zM40.058 41.495c2.582-2.552 6.127-4.014 10.036-4.014 4.055 0 7.713 1.528 10.316 4.251C58.562 40.743 56.455 40 54.218 40h-8.581C43.641 40 41.755 40.697 40.058 41.495zM52.229 90.96c-0.332 0.192-0.777 0.337-1.147 0.435 0.001-0.025-0.08-0.051-0.08-0.076V70h16.315c4.099 0 7.474 3.422 7.847 7.518L52.229 90.96zM87 68.548c0 1.589-1.061 3.069-2.438 3.864l-6.701 3.702C77.014 72.157 74 68.989 70 67.859v-1.396C70 65.637 69.698 65 68.87 65H68v-2.357c0-0.828-0.672-1.5-1.5-1.5s-1.5 0.672-1.5 1.5V65h-3.637c2.365-2 4.176-4.723 5.164-7.76 2.768-0.146 4.736-2.432 4.736-5.235 0-0.069-0.265-0.144-0.265-0.212V41.136c1-0.502 1.667-1.416 1.667-2.47 0-1.588-1.171-2.881-2.759-2.881-1.589 0-3.062 1.292-3.062 2.881 0 1.019 1.153 1.911 1.153 2.423v6.17c0-0.273-0.966-0.435-1.634-0.48-2.184-7.047-8.641-12.18-16.394-12.18-7.776 0-14.305 5.162-16.47 12.238-2.45 0.443-4.288 2.582-4.288 5.158 0 2.603 1.921 4.771 4.408 5.185 0.987 3.062 2.822 5.82 5.204 7.82h-8.002C29.994 65 29 65.637 29 66.465v1.913c-3 1.493-5.532 4.587-6.133 8.299l-7.512-4.265C13.98 71.618 13 70.139 13 68.548V31.451c0-1.589 1.061-3.069 2.437-3.863l32.23-18.549c0.677-0.391 1.5-0.597 2.282-0.597 0.781 0 1.578 0.207 2.256 0.597l32.347 18.549C85.927 28.382 87 29.863 87 31.451V68.548z" fill="#ffffff" data-fill-palette-color="quaternary"></path><path d="M57.866 55.829c0.293 0.293 0.677 0.438 1.061 0.438s0.769-0.146 1.062-0.438c0.586-0.586 0.586-1.535 0-2.121l-6.293-6.292c-0.586-0.586-1.535-0.586-2.121 0s-0.586 1.536 0 2.121L57.866 55.829z" fill="#ffffff" data-fill-palette-color="quaternary"></path><path d="M55.02 54.896c-0.586-0.586-1.535-0.586-2.121 0-0.586 0.584-0.586 1.535 0 2.121l2.69 2.691c0.293 0.293 0.677 0.439 1.062 0.439 0.384 0 0.768-0.146 1.061-0.439 0.586-0.585 0.586-1.535 0-2.121L55.02 54.896z" fill="#ffffff" data-fill-palette-color="quaternary"></path><path d="M36.92 73.366c-1.992 0-3.613 1.62-3.613 3.612 0 1.991 1.621 3.612 3.613 3.612 1.992 0 3.613-1.621 3.613-3.612C40.533 74.986 38.912 73.366 36.92 73.366z" fill="#ffffff" data-fill-palette-color="quaternary"></path><path d="M54.141 82.627l-1.477 1.477c-0.586 0.586-0.586 1.535 0 2.121 0.293 0.293 0.677 0.438 1.061 0.438 0.385 0 0.769-0.146 1.062-0.438l1.476-1.477c0.586-0.586 0.586-1.535 0-2.121S54.727 82.041 54.141 82.627z" fill="#ffffff" data-fill-palette-color="quaternary"></path><path d="M54.141 77.191l-1.477 1.477c-0.586 0.586-0.586 1.535 0 2.121 0.293 0.293 0.677 0.439 1.061 0.439 0.385 0 0.769-0.146 1.062-0.439l1.476-1.477c0.586-0.586 0.586-1.535 0-2.121S54.727 76.605 54.141 77.191z" fill="#ffffff" data-fill-palette-color="quaternary"></path><path d="M26.347 38.715l-0.988-0.54-0.54-0.988c-0.263-0.481-0.768-0.781-1.316-0.781s-1.053 0.299-1.316 0.78l-0.541 0.988-0.988 0.541c-0.481 0.263-0.78 0.768-0.78 1.316 0 0.548 0.299 1.053 0.78 1.316l0.988 0.541 0.541 0.988c0.263 0.481 0.768 0.78 1.316 0.78 0.549 0 1.053-0.299 1.316-0.781l0.54-0.988 0.988-0.54c0.481-0.263 0.78-0.768 0.78-1.316C27.127 39.483 26.828 38.978 26.347 38.715z" fill="#ffffff" data-fill-palette-color="quaternary"></path><path d="M46.198 22.932l-0.988-0.54-0.54-0.988c-0.263-0.481-0.768-0.781-1.316-0.781s-1.053 0.299-1.316 0.78l-0.541 0.988-0.988 0.541c-0.481 0.263-0.78 0.768-0.78 1.316s0.299 1.053 0.78 1.316l0.988 0.541 0.541 0.988c0.263 0.481 0.768 0.78 1.316 0.78 0.549 0 1.053-0.299 1.316-0.781l0.54-0.988 0.988-0.54c0.481-0.263 0.78-0.768 0.78-1.316S46.679 23.195 46.198 22.932z" fill="#ffffff" data-fill-palette-color="quaternary"></path><path d="M81.941 40.938l-0.989-0.54-0.541-0.989c-0.263-0.481-0.769-0.78-1.315-0.78-0.549 0-1.054 0.299-1.316 0.781l-0.539 0.988-0.987 0.54c-0.481 0.263-0.78 0.768-0.78 1.316s0.299 1.053 0.78 1.316l0.987 0.54 0.539 0.988c0.265 0.481 0.769 0.78 1.316 0.78 0.549 0 1.053-0.299 1.315-0.779l0.541-0.988 0.989-0.54c0.479-0.263 0.779-0.768 0.779-1.316S82.422 41.201 81.941 40.938z" fill="#ffffff" data-fill-palette-color="quaternary"></path><path d="M61.564 22.535c-2.562 0-4.646 2.083-4.646 4.645s2.084 4.646 4.646 4.646c2.561 0 4.645-2.084 4.645-4.646C66.209 24.619 64.125 22.535 61.564 22.535z" fill="#ffffff" data-fill-palette-color="quaternary"></path></g></svg></g></svg></g><g><path d="M13.244 89.179l-4.972-0.244c-0.997 1.251-1.758 2.627-2.285 4.127-0.527 1.501-0.562 2.966-0.105 4.396 0.457 1.43 1.527 2.441 3.209 3.031v0c1.632 0.573 3.13 0.316 4.492-0.77v0c0.74-0.601 1.302-1.105 1.685-1.514 0.379-0.417 0.906-1.032 1.579-1.846 0.665-0.81 1.131-1.362 1.397-1.658 0.264-0.288 0.664-0.715 1.201-1.281 0.544-0.564 0.99-0.971 1.339-1.222 0.353-0.243 0.823-0.526 1.409-0.849 0.588-0.329 1.135-0.539 1.64-0.63v0c1.283-0.198 2.555-0.076 3.817 0.367v0c2.241 0.787 3.753 2.337 4.534 4.651 0.779 2.319 0.661 4.926-0.356 7.82v0c-0.776 2.21-1.869 4.147-3.279 5.81v0c-0.678 0.827-1.425 1.436-2.239 1.826-0.817 0.397-1.621 0.457-2.411 0.179v0c-1.293-0.454-1.847-1.7-1.661-3.736v0c1.684 0.267 3.155 0.163 4.415-0.311 1.26-0.474 2.201-1.096 2.824-1.864 0.625-0.775 1.161-1.8 1.609-3.075 0.448-1.275 0.457-2.626 0.027-4.053-0.432-1.421-1.596-2.465-3.492-3.131v0c-1.444-0.507-2.859-0.264-4.245 0.731v0c-1.078 0.799-2.204 1.857-3.378 3.172-1.17 1.324-1.961 2.21-2.372 2.658-0.403 0.444-0.995 0.994-1.776 1.651-0.781 0.657-1.476 1.1-2.086 1.33v0c-1.599 0.595-3.201 0.61-4.809 0.046v0c-2.474-0.869-4.032-2.407-4.673-4.615-0.642-2.208-0.418-4.865 0.674-7.972v0c0.655-1.865 1.627-3.96 2.917-6.286v0l5.801 2.037z" fill="#000000" data-fill-palette-color="primary"></path><path d="M74.85 30.319c2.516 3.337 3.589 6.866 3.219 10.586-0.375 3.725-2.266 6.871-5.672 9.439-3.406 2.568-6.956 3.524-10.651 2.868-3.69-0.66-6.792-2.658-9.308-5.995-2.52-3.342-3.59-6.878-3.209-10.607 0.386-3.733 2.282-6.883 5.687-9.451 3.406-2.568 6.951-3.52 10.636-2.856 3.679 0.668 6.778 2.673 9.298 6.016zM71.648 49.284v0c4.724-3.562 4.433-8.86-0.871-15.895v0c-2.556-3.39-5.063-5.588-7.521-6.592-2.457-1.015-4.976-0.548-7.558 1.398-2.582 1.947-3.736 4.242-3.461 6.885 0.277 2.633 1.701 5.655 4.274 9.066v0c5.304 7.035 10.35 8.748 15.137 5.138z" fill="#000000" data-fill-palette-color="primary"></path><path d="M120.572 1.528l-0.019-0.878 11.296-0.247 0.019 0.878-3.333 0.532 8.961 21.189 7.701-20.795-3.706-1.007-0.022-1.008 8.742-0.192 0.022 1.008-3.149 1.197-9.807 26.283-1.886 0.042-11.586-26.613z" fill="#000000" data-fill-palette-color="primary"></path><path d="M212.141 51.679l-0.526 0.861-9.644-5.887 0.457-0.749 3.046 1.274 1.869-10.132-8.035-4.904-7.637 5.77 2.611 2.868-0.525 0.861-7.464-4.556 0.526-0.86 3.284 0.73 22.252-16.706 1.747 1.066-4.521 28.369zM200.617 31.128l6.995 4.269 1.806-10.814z" fill="#000000" data-fill-palette-color="primary"></path><path d="M271.635 91.245l0.917-0.421 3.523 7.686-0.916 0.42-2.094-2.268-23.619 10.828-0.956-2.087 12.89-26.993-19.017 8.719 0.504 3.591-0.917 0.42-3.59-7.831 0.916-0.42 2.338 2.607 22.293-10.221-1.137-3.487 0.871-0.399 2.862 6.243-12.116 25.067 17.721-8.124z" fill="#000000" data-fill-palette-color="primary"></path><path d="M35.555 190.812l4.117-3c0-1.637-0.272-3.225-0.815-4.762-0.541-1.531-1.456-2.721-2.745-3.572-1.28-0.846-2.783-0.964-4.508-0.354v0c-1.669 0.59-2.694 1.753-3.075 3.49v0c-0.212 0.957-0.337 1.721-0.376 2.292-0.038 0.571-0.063 1.399-0.075 2.483-0.014 1.078-0.035 1.819-0.061 2.223-0.02 0.402-0.066 1.001-0.138 1.796-0.063 0.799-0.159 1.408-0.286 1.827-0.119 0.423-0.309 0.953-0.571 1.589-0.262 0.636-0.563 1.152-0.904 1.547v0c-0.894 0.986-1.987 1.708-3.279 2.165v0c-2.29 0.809-4.492 0.54-6.606-0.809-2.112-1.343-3.691-3.495-4.738-6.456v0c-0.798-2.259-1.166-4.507-1.103-6.746v0c0.004-1.088 0.206-2.053 0.607-2.893 0.402-0.841 1.007-1.404 1.817-1.69v0c1.318-0.466 2.556 0.173 3.715 1.915v0c-1.508 0.865-2.614 1.891-3.316 3.078-0.703 1.187-1.054 2.289-1.055 3.306-0.007 1.019 0.22 2.181 0.682 3.485 0.461 1.305 1.321 2.388 2.577 3.25 1.255 0.855 2.852 0.94 4.791 0.254v0c1.487-0.526 2.464-1.626 2.93-3.301v0c0.346-1.336 0.564-2.906 0.654-4.709 0.09-1.803 0.152-3.014 0.187-3.634 0.041-0.622 0.16-1.444 0.357-2.466 0.196-1.022 0.468-1.821 0.815-2.395v0c0.889-1.5 2.155-2.54 3.799-3.121v0c2.535-0.896 4.768-0.669 6.699 0.681 1.929 1.344 3.456 3.606 4.579 6.787v0c0.674 1.907 1.243 4.205 1.706 6.893v0l-5.938 2.099z" fill="#000000" data-fill-palette-color="primary"></path><path d="M79.895 251.048c-2.579 3.422-5.75 5.474-9.513 6.155-3.772 0.682-7.401-0.29-10.887-2.918-3.492-2.631-5.435-5.858-5.829-9.679-0.393-3.813 0.7-7.43 3.279-10.853 2.579-3.422 5.757-5.473 9.535-6.151 3.779-0.669 7.414 0.312 10.905 2.944 3.486 2.627 5.423 5.845 5.811 9.654 0.379 3.81-0.722 7.426-3.301 10.848zM60.326 253.249v0c4.836 3.644 9.969 1.863 15.4-5.343v0c2.611-3.465 4.069-6.549 4.373-9.253 0.304-2.704-0.867-5.053-3.513-7.047-2.647-1.994-5.227-2.485-7.741-1.471-2.523 1.015-5.1 3.268-7.731 6.76v0c-5.431 7.206-5.693 12.658-0.788 16.354z" fill="#000000" data-fill-palette-color="primary"></path><path d="M120.892 251.658l0.021-0.898 11.565 0.26-0.02 0.898-3.443 0.392 8.2 22.089 8.827-20.928-3.737-1.202 0.023-1.028 8.951 0.201-0.023 1.028-3.289 1.084-11.217 26.446-1.926-0.043-10.649-27.756z" fill="#000000" data-fill-palette-color="primary"></path><path d="M221.838 251.584l0.533 0.879-9.89 6.001-0.466-0.768 2.589-2.178-8.336-6.466-8.235 4.997 1.652 9.669 3.84-1.022 0.533 0.879-7.655 4.644-0.533-0.879 2.202-2.644-4.72-28.099 1.792-1.087 23.676 17.45zM197.722 252.381l7.177-4.354-8.993-6.721z" fill="#000000" data-fill-palette-color="primary"></path><path d="M240.736 182.231l-0.933-0.432 3.64-7.852 0.932 0.433-0.362 3.132 24.134 11.187-0.991 2.137-29.588 7.915 19.434 9.008 2.463-2.775 0.933 0.433-3.711 8.005-0.932-0.432 0.47-3.556-22.776-10.557-1.955 3.198-0.896-0.416 2.955-6.375 27.581-7.239-18.112-8.396z" fill="#000000" data-fill-palette-color="primary"></path><path d="M10.477 143.683c0-1.811 1.468-3.28 3.28-3.279 1.811 0 3.28 1.468 3.279 3.279 0 1.811-1.468 3.28-3.279 3.28-1.811 0-3.28-1.468-3.28-3.28z" fill="#000000" data-fill-palette-color="primary"></path><path d="M262.019 143.683c0-1.811 1.468-3.28 3.28-3.279 1.811 0 3.28 1.468 3.28 3.279 0 1.811-1.468 3.28-3.28 3.28-1.811 0-3.28-1.468-3.28-3.28z" fill="#000000" data-fill-palette-color="primary"></path></g></svg></g></svg></g></svg></g></svg></g><defs></defs></svg><rect width="329.9831645537222" height="280" fill="none" stroke="none" visibility="hidden"></rect></g></svg></g></svg>